# File created by Blade
# Date/Time:  Thu Jan 22 15:33:09 2015
#---------------------------------------------------------
:version 1.10
:name HOM
:units
  mass 1.0
  length 1.000000
  angle deg
:documentation
     Acclaim Skeleton File
:root
   axis xyz
   order TX TY TZ RX RY RZ
   position 0.000000 0.000000 0.000000
   orientation 0 0 0
:bonedata
   begin
      id 1
      name RightUpLeg_dum
      direction -1.000000 0.000000 0.000000
      length 3.693983
      axis 0.0 0.0 0.0 xyz
   end
   begin
      id 2
      name LeftUpLeg_dum
      direction 1.000000 0.000000 0.000000
      length 3.693983
      axis 0.0 0.0 0.0 xyz
   end
   begin
      id 3
      name Spine_dum
      direction 0.000000 1.000000 0.000000
      length 2.392956
      axis 0.0 0.0 0.0 xyz
   end
   begin
      id 4
      name RightUpLeg
      direction 0.000000 -1.000000 0.000000
      length 15.795667
      axis 0.0 0.0 0.0 xyz
      dof rx ry rz
   end
   begin
      id 5
      name RightLeg
      direction 0.000000 -1.000000 0.000000
      length 14.766989
      axis 0.0 0.0 0.0 xyz
      dof rx ry rz
   end
   begin
      id 6
      name RightFoot
      direction 0.000000 -0.258819 0.965926
      length 4.962790
      axis 15.0 0.0 0.0 xyz
      dof rx ry rz
   end
   begin
      id 7
      name RightToeBase
      direction 0.000000 0.000000 1.000000
      length 2.952750
      axis 0.0 0.0 0.0 xyz
      dof rx ry rz
   end
   begin
      id 8
      name LeftUpLeg
      direction 0.000000 -1.000000 0.000000
      length 15.795667
      axis 0.0 0.0 0.0 xyz
      dof rx ry rz
   end
   begin
      id 9
      name LeftLeg
      direction 0.000000 -1.000000 0.000000
      length 14.766989
      axis 0.0 0.0 0.0 xyz
      dof rx ry rz
   end
   begin
      id 10
      name LeftFoot
      direction 0.000000 -0.258819 0.965926
      length 4.962790
      axis 15.0 0.0 0.0 xyz
      dof rx ry rz
   end
   begin
      id 11
      name LeftToeBase
      direction 0.000000 0.000000 1.000000
      length 2.952750
      axis 0.0 0.0 0.0 xyz
      dof rx ry rz
   end
   begin
      id 12
      name Spine
      direction 0.000000 1.000000 0.000000
      length 0.000000
      axis 0.0 0.0 0.0 xyz
      dof rx ry rz
   end
   begin
      id 13
      name Spine_dum1
      direction 0.000000 1.000000 0.000000
      length 13.207411
      axis 0.0 0.0 0.0 xyz
   end
   begin
      id 14
      name Spine_dum2
      direction 0.000000 1.000000 0.000000
      length 13.207411
      axis 0.0 0.0 0.0 xyz
   end
   begin
      id 15
      name Spine_dum3
      direction 0.000000 1.000000 0.000000
      length 19.250100
      axis 0.0 0.0 0.0 xyz
   end
   begin
      id 16
      name RightShoulder
      direction -1.000000 0.000000 0.000000
      length 8.140465
      axis 0.0 0.0 90.0 xyz
      dof rx ry rz
   end
   begin
      id 17
      name RightArm
      direction -1.000000 0.000000 0.000000
      length 10.649840
      axis 0.0 0.0 90.0 xyz
      dof rx ry rz
   end
   begin
      id 18
      name RightForeArm
      direction -1.000000 0.000000 0.000000
      length 8.304624
      axis 0.0 0.0 90.0 xyz
      dof ry rz rx
   end
   begin
      id 19
      name RightHand
      direction -1.000000 0.000000 0.000000
      length 0.000000
      axis 0.0 0.0 90.0 xyz
      dof rx ry rz
   end
   begin
      id 20
      name RightHand_dum1
      direction -1.000000 0.000000 0.000000
      length 3.937000
      axis 0.0 0.0 90.0 xyz
   end
   begin
      id 21
      name RightHand_dum2
      direction 0.000000 0.000000 0.000000
      length 0.000000
      axis 0.0 0.0 90.0 xyz
   end
   begin
      id 22
      name RightHandThumb1
      direction 0.000000 0.000000 1.000000
      length 3.937000
      axis 0.0 0.0 90.0 xyz
      dof rx rz ry
   end
   begin
      id 23
      name LeftShoulder
      direction 1.000000 0.000000 0.000000
      length 8.140465
      axis 0.0 0.0 -90.0 xyz
      dof rx ry rz
   end
   begin
      id 24
      name LeftArm
      direction 1.000000 0.000000 0.000000
      length 10.649840
      axis 0.0 0.0 -90.0 xyz
      dof rx ry rz
   end
   begin
      id 25
      name LeftForeArm
      direction 1.000000 0.000000 0.000000
      length 8.304624
      axis 0.0 0.0 -90.0 xyz
      dof ry rz rx
   end
   begin
      id 26
      name LeftHand
      direction 1.000000 0.000000 0.000000
      length 0.000000
      axis 0.0 0.0 -90.0 xyz
      dof rx ry rz
   end
   begin
      id 27
      name LeftHand_dum1
      direction 1.000000 0.000000 0.000000
      length 3.937000
      axis 0.0 0.0 -90.0 xyz
   end
   begin
      id 28
      name LeftHand_dum2
      direction 0.000000 0.000000 0.000000
      length 0.000000
      axis 0.0 0.0 -90.0 xyz
   end
   begin
      id 29
      name LeftHandThumb1
      direction 0.000000 0.000000 1.000000
      length 3.937000
      axis 0.0 0.0 -90.0 xyz
      dof rx rz ry
   end
   begin
      id 30
      name Head
      direction 0.000000 1.000000 0.000000
      length 4.527550
      axis 0.0 0.0 0.0 xyz
      dof rx ry rz
   end
:hierarchy
   begin
      root RightUpLeg_dum LeftUpLeg_dum Spine_dum
      RightUpLeg_dum RightUpLeg
      LeftUpLeg_dum LeftUpLeg
      Spine_dum Spine
      RightUpLeg RightLeg
      RightLeg RightFoot
      RightFoot RightToeBase
      LeftUpLeg LeftLeg
      LeftLeg LeftFoot
      LeftFoot LeftToeBase
      Spine Spine_dum1 Spine_dum2 Spine_dum3
      Spine_dum1 RightShoulder
      Spine_dum2 LeftShoulder
      Spine_dum3 Head
      RightShoulder RightArm
      RightArm RightForeArm
      RightForeArm RightHand
      RightHand RightHand_dum1 RightHand_dum2
      RightHand_dum2 RightHandThumb1
      LeftShoulder LeftArm
      LeftArm LeftForeArm
      LeftForeArm LeftHand
      LeftHand LeftHand_dum1 LeftHand_dum2
      LeftHand_dum2 LeftHandThumb1
   end

# File created by Blade
# Date/Time:  Thu Jan 22 15:33:01 2015
# Frame Rate: 120.000 fps
#------------------------------------------------------
:FULLY-SPECIFIED
:DEGREES
735
root -8.206084 12.153342 5.250248 48.572956 -83.742114 -171.267132
RightUpLeg -95.246491 -1.135912 -4.416290
RightLeg 27.852701 -0.000000 -0.000000
RightFoot 25.214051 -12.902874 8.829221
RightToeBase 22.387223 -0.000000 -0.000000
LeftUpLeg -97.481077 -6.526482 4.958298
LeftLeg 27.078577 -0.000000 -0.000000
LeftFoot 36.463694 -2.244023 -2.829241
LeftToeBase 27.589298 -0.000000 -0.000000
Spine 6.002604 3.595896 3.016507
RightShoulder -10.271311 -21.103318 -14.405514
RightArm -16.903715 -24.520312 94.654404
RightForeArm 39.216827 -0.000000 52.021025
RightHand -7.721491 0.000000 41.482381
RightHandThumb1 -24.326973 -0.000000 -32.862282
LeftShoulder -3.522996 37.191181 15.238626
LeftArm 5.746348 13.359696 -84.363059
LeftForeArm 18.200144 -0.000000 67.026026
LeftHand -15.242420 -0.000000 -46.905877
LeftHandThumb1 -26.253704 0.000000 33.147579
Head 73.222959 -7.641396 -0.990173
736
root -7.898076 12.484752 5.234077 48.915479 -83.571937 -172.769233
RightUpLeg -93.557131 -0.931933 -4.325272
RightLeg 27.163151 -0.000000 -0.000000
RightFoot 25.319101 -13.179798 8.835015
RightToeBase 22.398429 -0.000000 -0.000000
LeftUpLeg -95.814438 -6.494967 4.465463
LeftLeg 26.583225 -0.000000 -0.000000
LeftFoot 36.458473 -2.452685 -2.851522
LeftToeBase 27.613886 -0.000000 -0.000000
Spine 5.593657 3.380170 3.010895
RightShoulder -10.536613 -21.359442 -14.484785
RightArm -17.426778 -24.734492 94.460343
RightForeArm 39.538777 -0.000000 53.344836
RightHand -7.897888 -0.000000 41.346684
RightHandThumb1 -24.326973 -0.000000 -32.862282
LeftShoulder -3.653816 38.062998 15.220005
LeftArm 5.559997 13.890181 -84.001660
LeftForeArm 17.231414 -0.000000 66.988700
LeftHand -14.839470 -0.000000 -47.703195
LeftHandThumb1 -26.253704 0.000000 33.147579
Head 73.085793 -7.489802 -0.949027
737
root -7.589306 12.817544 5.218494 49.830850 -83.410072 -174.758377
RightUpLeg -91.914064 -0.674081 -4.098553
RightLeg 26.463126 -0.000000 -0.000000
RightFoot 25.532704 -13.553536 8.831748
RightToeBase 22.391742 -0.000000 -0.000000
LeftUpLeg -94.185739 -6.374044 3.948864
LeftLeg 26.115567 -0.000000 -0.000000
LeftFoot 36.500240 -2.759695 -2.568088
LeftToeBase 27.550579 -0.000000 -0.000000
Spine 5.092021 3.104419 3.035132
RightShoulder -10.249658 -21.467127 -14.862588
RightArm -18.284792 -24.584914 94.585236
RightForeArm 39.871886 0.000000 54.529284
RightHand -7.739361 -0.000000 41.408201
RightHandThumb1 -24.326973 -0.000000 -32.862282
LeftShoulder -3.941806 39.121728 15.163150
LeftArm 5.539324 14.576944 -83.624564
LeftForeArm 15.969777 -0.000000 66.937645
LeftHand -14.388703 -0.000000 -48.577335
LeftHandThumb1 -26.253704 0.000000 33.147579
Head 72.826342 -7.273240 -0.689990
738
root -7.260781 13.135802 5.202104 50.382428 -83.299664 -176.355303
RightUpLeg -90.213408 -0.401476 -3.874820
RightLeg 25.738695 -0.000000 -0.000000
RightFoot 25.702422 -14.012857 9.020603
RightToeBase 22.849555 -0.000000 -0.000000
LeftUpLeg -92.432972 -6.207298 3.441040
LeftLeg 25.539710 -0.000000 -0.000000
LeftFoot 36.376530 -2.684195 -2.682861
LeftToeBase 28.016947 -0.000000 -0.000000
Spine 4.615045 2.890700 3.342971
RightShoulder -7.018907 -23.538420 -19.650362
RightArm -13.937557 -20.452102 98.074001
RightForeArm 40.234814 0.000000 45.718504
RightHand -8.366635 -0.000000 51.388206
RightHandThumb1 -24.326973 -0.000000 -32.862282
LeftShoulder -4.338207 39.678559 14.410538
LeftArm 5.162188 15.624802 -82.473688
LeftForeArm 13.984866 -0.000000 67.057862
LeftHand -14.136189 -0.000000 -49.242029
LeftHandThumb1 -26.253704 0.000000 33.147579
Head 72.774062 -6.334169 -1.802547
739
root -6.943196 13.461577 5.185835 51.218214 -83.129531 -178.186460
RightUpLeg -88.566267 -0.141987 -3.600305
RightLeg 25.072266 -0.000000 -0.000000
RightFoot 25.973697 -14.435023 9.129180
RightToeBase 22.984956 -0.000000 -0.000000
LeftUpLeg -90.758749 -6.023624 3.004564
LeftLeg 25.037803 -0.000000 -0.000000
LeftFoot 36.237663 -2.731210 -2.513361
LeftToeBase 28.427738 -0.000000 -0.000000
Spine 4.111804 3.135229 3.387563
RightShoulder -7.020611 -23.936704 -19.664649
RightArm -14.851921 -20.982649 97.992930
RightForeArm 41.705668 -0.000000 47.328047
RightHand -8.746695 -0.000000 51.157293
RightHandThumb1 -24.326973 -0.000000 -32.862282
LeftShoulder -4.419105 40.092206 14.706807
LeftArm 4.926659 16.952821 -82.050718
LeftForeArm 12.512063 0.000000 66.967277
LeftHand -13.745868 -0.000000 -50.041861
LeftHandThumb1 -26.253704 0.000000 33.147579
Head 72.533069 -6.739549 -1.806404
740
root -6.613395 13.773995 5.168094 51.885509 -83.022045 -179.756666
RightUpLeg -86.957696 0.133983 -3.333051
RightLeg 24.410936 -0.000000 -0.000000
RightFoot 26.234232 -14.898644 9.340591
RightToeBase 23.096067 -0.000000 -0.000000
LeftUpLeg -89.075247 -5.778021 2.530349
LeftLeg 24.496285 -0.000000 -0.000000
LeftFoot 36.091808 -2.758816 -2.378186
LeftToeBase 28.701470 -0.000000 -0.000000
Spine 3.492529 3.348192 3.318758
RightShoulder -6.941190 -24.477263 -19.604400
RightArm -15.648720 -21.731610 97.783935
RightForeArm 42.901253 -0.000000 49.026730
RightHand -8.868265 -0.000000 50.860119
RightHandThumb1 -24.326973 -0.000000 -32.862282
LeftShoulder -4.485287 40.628560 15.029257
LeftArm 4.741308 18.310723 -81.661856
LeftForeArm 10.931087 -0.000000 66.988553
LeftHand -13.592845 -0.000000 -50.639725
LeftHandThumb1 -26.253704 0.000000 33.147579
Head 72.531628 -7.106542 -1.606236
741
root -6.271721 14.074437 5.159569 52.330831 -82.859457 -181.184346
RightUpLeg -85.197709 0.330519 -2.935522
RightLeg 23.763975 -0.000000 -0.000000
RightFoot 26.422958 -15.194016 9.541842
RightToeBase 23.151682 -0.000000 -0.000000
LeftUpLeg -87.247318 -5.573621 2.056874
LeftLeg 23.957692 -0.000000 -0.000000
LeftFoot 35.793228 -2.788954 -2.026394
LeftToeBase 29.061027 -0.000000 -0.000000
Spine 2.997690 3.512704 3.346279
RightShoulder -7.051160 -24.987656 -19.507085
RightArm -16.345377 -22.446600 97.539117
RightForeArm 43.697045 -0.000000 50.629703
RightHand -8.799742 -0.000000 50.719982
RightHandThumb1 -24.326973 -0.000000 -32.862282
LeftShoulder -4.581749 41.159437 15.221812
LeftArm 4.581862 19.648730 -81.244719
LeftForeArm 9.508419 -0.000000 67.063053
LeftHand -13.360018 -0.000000 -51.155193
LeftHandThumb1 -26.253704 0.000000 33.147579
Head 72.639176 -7.404071 -1.538933
742
root -5.931385 14.366114 5.149986 52.621186 -82.723402 -182.384060
RightUpLeg -83.536728 0.507989 -2.493280
RightLeg 23.189793 -0.000000 -0.000000
RightFoot 26.796986 -15.446389 9.614115
RightToeBase 23.177651 -0.000000 -0.000000
LeftUpLeg -85.446869 -5.353856 1.686228
LeftLeg 23.395878 -0.000000 -0.000000
LeftFoot 35.452654 -2.732192 -1.839534
LeftToeBase 29.467926 -0.000000 -0.000000
Spine 2.487851 3.724252 3.335120
RightShoulder -7.271084 -25.377633 -19.448264
RightArm -17.108225 -23.148954 97.388798
RightForeArm 44.322633 -0.000000 52.185341
RightHand -8.897646 0.000000 50.448208
RightHandThumb1 -24.326973 -0.000000 -32.862282
LeftShoulder -4.715687 41.455527 15.402230
LeftArm 4.209335 21.023569 -80.890300
LeftForeArm 8.462058 0.000000 67.375111
LeftHand -13.130560 -0.000000 -51.712928
LeftHandThumb1 -26.253704 0.000000 33.147579
Head 72.771880 -7.737045 -1.428740
743
root -5.581191 14.642130 5.142667 52.906232 -82.593619 -183.600119
RightUpLeg -81.767777 0.684496 -2.087374
RightLeg 22.562759 -0.000000 -0.000000
RightFoot 27.122147 -15.667275 9.842440
RightToeBase 23.262151 -0.000000 -0.000000
LeftUpLeg -83.584265 -5.122993 1.380411
LeftLeg 22.854842 -0.000000 -0.000000
LeftFoot 35.125568 -2.683514 -1.681847
LeftToeBase 29.932808 -0.000000 -0.000000
Spine 2.041896 3.805457 3.368480
RightShoulder -7.538047 -25.686056 -19.481661
RightArm -17.694928 -24.083722 97.266748
RightForeArm 44.854564 -0.000000 53.464594
RightHand -8.919285 -0.000000 50.285580
RightHandThumb1 -24.326973 -0.000000 -32.862282
LeftShoulder -4.924793 41.809444 15.402620
LeftArm 3.833345 22.365902 -80.543746
LeftForeArm 7.384564 -0.000000 67.767649
LeftHand -13.057003 -0.000000 -52.064304
LeftHandThumb1 -26.253704 0.000000 33.147579
Head 73.047363 -7.798292 -1.402615
744
root -5.229693 14.910610 5.135049 53.100102 -82.453452 -184.702585
RightUpLeg -80.012727 0.839760 -1.687506
RightLeg 21.986682 -0.000000 -0.000000
RightFoot 27.451682 -15.775009 10.007535
RightToeBase 23.588974 -0.000000 -0.000000
LeftUpLeg -81.764723 -4.853774 0.973383
LeftLeg 22.422998 -0.000000 -0.000000
LeftFoot 34.864495 -2.833474 -1.464031
LeftToeBase 30.090768 -0.000000 -0.000000
Spine 1.617736 3.949295 3.421253
RightShoulder -7.927857 -25.881904 -19.532048
RightArm -18.358473 -24.987384 97.251013
RightForeArm 45.481278 -0.000000 54.583547
RightHand -9.149986 -0.000000 50.181088
RightHandThumb1 -24.326973 -0.000000 -32.862282
LeftShoulder -5.110355 42.126628 15.364690
LeftArm 3.483313 23.940666 -80.030061
LeftForeArm 6.212372 -0.000000 68.359855
LeftHand -12.877036 -0.000000 -52.006445
LeftHandThumb1 -26.253704 0.000000 33.147579
Head 73.318005 -7.900531 -1.412294
745
root -4.885574 15.170161 5.130825 52.842310 -82.325849 -185.306251
RightUpLeg -78.356251 0.931276 -1.325076
RightLeg 21.534438 -0.000000 -0.000000
RightFoot 27.858126 -15.832721 10.069599
RightToeBase 24.047155 -0.000000 -0.000000
LeftUpLeg -79.997686 -4.671604 0.726407
LeftLeg 22.017398 -0.000000 -0.000000
LeftFoot 34.669756 -2.984003 -1.430688
LeftToeBase 30.414725 -0.000000 -0.000000
Spine 1.188195 4.021264 3.423179
RightShoulder -8.241934 -26.011436 -19.645316
RightArm -19.078261 -26.086840 97.330334
RightForeArm 46.325844 -0.000000 55.570387
RightHand -9.113094 -0.000000 50.041785
RightHandThumb1 -24.326973 -0.000000 -32.862282
LeftShoulder -5.298029 42.431768 15.323481
LeftArm 3.131880 25.452239 -79.631126
LeftForeArm 5.036283 -0.000000 68.986320
LeftHand -12.706860 0.000000 -52.256041
LeftHandThumb1 -26.253704 0.000000 33.147579
Head 73.575933 -7.985126 -1.528078
746
root -4.698209 15.496940 5.096587 52.667095 -82.186172 -185.663832
RightUpLeg -77.642339 1.178726 -1.514191
RightLeg 21.701532 -0.000000 -0.000000
RightFoot 28.269547 -16.286745 10.465433
RightToeBase 24.548712 -0.000000 -0.000000
LeftUpLeg -79.165903 -4.571851 0.806338
LeftLeg 22.136121 -0.000000 -0.000000
LeftFoot 34.786799 -2.963375 -1.728382
LeftToeBase 30.391332 -0.000000 -0.000000
Spine -2.383960 4.876760 3.026595
RightShoulder -2.784855 -28.897086 -23.073127
RightArm -19.642333 -23.419235 100.219531
RightForeArm 47.790602 -0.000000 56.589767
RightHand -9.369998 -0.000000 49.981352
RightHandThumb1 -24.326973 -0.000000 -32.862282
LeftShoulder 3.625703 44.153965 23.307414
LeftArm 1.283270 24.651740 -84.329492
LeftForeArm 3.530866 -0.000000 69.560469
LeftHand -12.434434 -0.000000 -52.489466
LeftHandThumb1 -26.253704 0.000000 33.147579
Head 76.379771 -9.230059 -1.402182
